<svg width="40" height="40" viewBox="0 0 40 40" fill="none" xmlns="http://www.w3.org/2000/svg">
<rect x="0.5" y="0.5" width="39" height="39" rx="9.5" stroke="#FF656F"/>
<g opacity="0.7">
<path fill-rule="evenodd" clip-rule="evenodd" d="M10.5597 10.1379H8.10352V8.13794H10.5597C12.2166 8.13794 13.5597 9.48109 13.5597 11.1379V12.6207H27.8277C29.4845 12.6207 30.8277 13.9638 30.8277 15.6207V18.8142C30.8277 20.1933 29.8874 21.3947 28.5487 21.7262L15.9733 24.8401C17.4115 25.3194 18.4484 26.6765 18.4484 28.2758C18.4484 30.2755 16.8274 31.8965 14.8277 31.8965C12.8281 31.8965 11.207 30.2755 11.207 28.2758C11.207 26.7454 12.1565 25.4368 13.4986 24.9069C12.3842 24.4832 11.5597 23.408 11.5597 22.0995V11.1379C11.5597 10.5857 11.112 10.1379 10.5597 10.1379ZM13.5597 14.6207V22.0995C13.5597 22.7492 14.1695 23.2264 14.8001 23.0702L28.068 19.7848C28.5142 19.6743 28.8277 19.2739 28.8277 18.8142V15.6207C28.8277 15.0684 28.3799 14.6207 27.8277 14.6207H13.5597ZM14.8277 29.8965C15.7228 29.8965 16.4484 29.1709 16.4484 28.2758C16.4484 27.3808 15.7228 26.6552 14.8277 26.6552C13.9326 26.6552 13.207 27.3808 13.207 28.2758C13.207 29.1709 13.9326 29.8965 14.8277 29.8965ZM28.862 28.2758C28.862 29.1709 28.1364 29.8965 27.2413 29.8965C26.3462 29.8965 25.6206 29.1709 25.6206 28.2758C25.6206 27.3808 26.3462 26.6552 27.2413 26.6552C28.1364 26.6552 28.862 27.3808 28.862 28.2758ZM30.862 28.2758C30.862 30.2755 29.2409 31.8965 27.2413 31.8965C25.2416 31.8965 23.6206 30.2755 23.6206 28.2758C23.6206 26.2762 25.2416 24.6552 27.2413 24.6552C29.2409 24.6552 30.862 26.2762 30.862 28.2758Z" fill="#FC9096"/>
</g>
</svg>
