<svg width="34" height="34" viewBox="0 0 34 34" fill="none" xmlns="http://www.w3.org/2000/svg">
<path d="M15.3335 25.3333H18.6668V15.3333H15.3335V25.3333ZM17.0002 12C17.4724 12 17.8685 11.84 18.1885 11.52C18.5085 11.2 18.6679 10.8044 18.6668 10.3333C18.6657 9.8622 18.5057 9.46665 18.1868 9.14665C17.8679 8.82665 17.4724 8.66665 17.0002 8.66665C16.5279 8.66665 16.1324 8.82665 15.8135 9.14665C15.4946 9.46665 15.3346 9.8622 15.3335 10.3333C15.3324 10.8044 15.4924 11.2005 15.8135 11.5216C16.1346 11.8428 16.5302 12.0022 17.0002 12ZM17.0002 33.6666C14.6946 33.6666 12.5279 33.2289 10.5002 32.3533C8.47239 31.4778 6.7085 30.2905 5.2085 28.7916C3.7085 27.2928 2.52128 25.5289 1.64683 23.5C0.772387 21.4711 0.334609 19.3044 0.333498 17C0.332387 14.6955 0.770165 12.5289 1.64683 10.5C2.5235 8.47109 3.71072 6.7072 5.2085 5.20831C6.70628 3.70942 8.47017 2.5222 10.5002 1.64665C12.5302 0.771091 14.6968 0.333313 17.0002 0.333313C19.3035 0.333313 21.4702 0.771091 23.5002 1.64665C25.5302 2.5222 27.2941 3.70942 28.7918 5.20831C30.2896 6.7072 31.4774 8.47109 32.3552 10.5C33.2329 12.5289 33.6702 14.6955 33.6668 17C33.6635 19.3044 33.2257 21.4711 32.3535 23.5C31.4813 25.5289 30.2941 27.2928 28.7918 28.7916C27.2896 30.2905 25.5257 31.4783 23.5002 32.355C21.4746 33.2316 19.3079 33.6689 17.0002 33.6666ZM17.0002 30.3333C20.7224 30.3333 23.8752 29.0416 26.4585 26.4583C29.0418 23.875 30.3335 20.7222 30.3335 17C30.3335 13.2778 29.0418 10.125 26.4585 7.54165C23.8752 4.95831 20.7224 3.66665 17.0002 3.66665C13.2779 3.66665 10.1252 4.95831 7.54183 7.54165C4.9585 10.125 3.66683 13.2778 3.66683 17C3.66683 20.7222 4.9585 23.875 7.54183 26.4583C10.1252 29.0416 13.2779 30.3333 17.0002 30.3333Z" fill="#FFA333"/>
</svg>
