<svg width="40" height="40" viewBox="0 0 40 40" fill="none" xmlns="http://www.w3.org/2000/svg">
<rect x="0.5" y="0.5" width="39" height="39" rx="9.5" stroke="#FF656F"/>
<g opacity="0.7">
<path fill-rule="evenodd" clip-rule="evenodd" d="M24.6552 15.8621C24.6552 18.4331 22.571 20.5172 20.0001 20.5172C17.4291 20.5172 15.3449 18.4331 15.3449 15.8621C15.3449 13.2911 17.4291 11.2069 20.0001 11.2069C22.571 11.2069 24.6552 13.2911 24.6552 15.8621ZM26.7242 15.8621C26.7242 19.5757 23.7137 22.5862 20.0001 22.5862C16.2864 22.5862 13.2759 19.5757 13.2759 15.8621C13.2759 12.1484 16.2864 9.13794 20.0001 9.13794C23.7137 9.13794 26.7242 12.1484 26.7242 15.8621ZM12.2414 24.6552C9.95613 24.6552 8.10352 26.5078 8.10352 28.7931V31.8966H10.1725V28.7931C10.1725 27.6505 11.0988 26.7241 12.2414 26.7241H27.7587C28.9013 26.7241 29.8277 27.6505 29.8277 28.7931V31.8966H31.8966V28.7931C31.8966 26.5078 30.044 24.6552 27.7587 24.6552H12.2414Z" fill="#FF656F"/>
</g>
</svg>
