<svg width="1835" height="873" viewBox="0 0 1835 873" fill="none" xmlns="http://www.w3.org/2000/svg">
<g opacity="0.2">
<rect x="1315.24" y="519.926" width="25.2719" height="71.1431" rx="12.636" transform="rotate(135 1315.24 519.926)" fill="#F0FFF2" fill-opacity="0.5"/>
<rect x="1349.88" y="487.468" width="25.2719" height="72.6908" rx="12.636" transform="rotate(135 1349.88 487.468)" fill="#F0FFF2" fill-opacity="0.8"/>
<rect x="1264.88" y="505.408" width="25.2922" height="72.8655" rx="12.6461" transform="rotate(-135 1264.88 505.408)" fill="#F0FFF2"/>
</g>
<g opacity="0.2">
<rect width="25.2719" height="71.1431" rx="12.636" transform="matrix(0.707107 0.707107 0.707107 -0.707107 612.677 251.927)" fill="#F0FFF2" fill-opacity="0.5"/>
<rect width="25.2719" height="72.6908" rx="12.636" transform="matrix(0.707107 0.707107 0.707107 -0.707107 578.031 219.469)" fill="#F0FFF2" fill-opacity="0.8"/>
<rect width="25.2922" height="72.8655" rx="12.6461" transform="matrix(0.707107 -0.707107 -0.707107 -0.707107 663.031 237.408)" fill="#F0FFF2"/>
</g>
<g opacity="0.2">
<rect x="1110.45" y="205.695" width="16.553" height="46.5985" rx="8.27652" transform="rotate(-135 1110.45 205.695)" fill="#F0FFF2" fill-opacity="0.5"/>
<rect x="1131.71" y="228.389" width="16.553" height="47.6123" rx="8.27652" transform="rotate(-135 1131.71 228.389)" fill="#F0FFF2" fill-opacity="0.8"/>
<rect x="1119.96" y="172.714" width="16.5663" height="47.7267" rx="8.28317" transform="rotate(-45 1119.96 172.714)" fill="#F0FFF2"/>
</g>
<g opacity="0.4">
<rect opacity="0.5" x="1698.01" y="524.312" width="41.2246" height="116.051" rx="20.6123" transform="rotate(-135 1698.01 524.312)" fill="#F0FFF2" fill-opacity="0.5"/>
<rect x="1750.96" y="580.828" width="41.2246" height="118.576" rx="20.6123" transform="rotate(-135 1750.96 580.828)" fill="#F0FFF2" fill-opacity="0.8"/>
<rect opacity="0.7" x="1721.69" y="442.173" width="41.2577" height="118.861" rx="20.6289" transform="rotate(-45 1721.69 442.173)" fill="#F0FFF2"/>
</g>
<g opacity="0.4">
<rect opacity="0.5" width="41.2246" height="116.051" rx="20.6123" transform="matrix(0.707107 -0.707107 -0.707107 -0.707107 136.903 111.312)" fill="#F0FFF2" fill-opacity="0.5"/>
<rect width="41.2246" height="118.576" rx="20.6123" transform="matrix(0.707107 -0.707107 -0.707107 -0.707107 83.958 167.828)" fill="#F0FFF2" fill-opacity="0.8"/>
<rect opacity="0.7" width="41.2577" height="118.861" rx="20.6289" transform="matrix(-0.707107 -0.707107 -0.707107 0.707107 113.221 29.1736)" fill="#F0FFF2"/>
</g>
<g opacity="0.4">
<rect opacity="0.5" width="41.2246" height="116.051" rx="20.6123" transform="matrix(0.707107 -0.707107 -0.707107 -0.707107 168.903 816.312)" fill="#F0FFF2" fill-opacity="0.5"/>
<rect width="41.2246" height="118.576" rx="20.6123" transform="matrix(0.707107 -0.707107 -0.707107 -0.707107 115.958 872.828)" fill="#F0FFF2" fill-opacity="0.8"/>
<rect opacity="0.7" width="41.2577" height="118.861" rx="20.6289" transform="matrix(-0.707107 -0.707107 -0.707107 0.707107 145.221 734.174)" fill="#F0FFF2"/>
</g>
<g opacity="0.2">
<rect x="1522.3" y="682.953" width="29.196" height="82.1896" rx="14.598" transform="rotate(135 1522.3 682.953)" fill="#F0FFF2" fill-opacity="0.5"/>
<rect x="1562.33" y="645.456" width="29.196" height="83.9777" rx="14.598" transform="rotate(135 1562.33 645.456)" fill="#F0FFF2" fill-opacity="0.8"/>
<rect x="1464.13" y="666.181" width="29.2194" height="84.1795" rx="14.6097" transform="rotate(-135 1464.13 666.181)" fill="#F0FFF2"/>
</g>
<g opacity="0.2">
<rect width="29.196" height="82.1896" rx="14.598" transform="matrix(0.707107 0.707107 0.707107 -0.707107 405.61 414.954)" fill="#F0FFF2" fill-opacity="0.5"/>
<rect width="29.196" height="83.9777" rx="14.598" transform="matrix(0.707107 0.707107 0.707107 -0.707107 365.584 377.457)" fill="#F0FFF2" fill-opacity="0.8"/>
<rect width="29.2194" height="84.1795" rx="14.6097" transform="matrix(0.707107 -0.707107 -0.707107 -0.707107 463.782 398.182)" fill="#F0FFF2"/>
</g>
</svg>
