<svg width="177" height="60" viewBox="0 0 177 60" fill="none" xmlns="http://www.w3.org/2000/svg">
<g clip-path="url(#clip0_3465_1092)">
<path d="M26.7246 0H153.659C166.543 0 177 10.422 177 23.262V56.358C177 58.368 175.362 60.006 173.34 60.006H26.7246C11.9746 60 0 48.066 0 33.366V26.634C0 11.934 11.9746 0 26.7246 0Z" fill="#FFA333"/>
<path d="M32.9438 16.914H38.7595V26.112H43.2748V13.578H28.4285V26.112H32.9438V16.914Z" fill="white"/>
<path d="M57.1579 26.112H61.5829V13.578H55.8093L50.1922 21.93V13.578H45.7432V26.112H51.3602L57.1579 17.496V26.112Z" fill="white"/>
<path d="M72.4437 26.112V16.956H77.2239V13.578H63.1482V16.956H67.9284V26.112H72.4437Z" fill="white"/>
<path d="M80.824 25.644C81.7572 26.19 82.8409 26.466 84.075 26.466C85.3092 26.466 86.3267 26.19 87.2598 25.644C88.1147 25.14 88.8312 24.438 89.4151 23.556L89.7402 26.112H94.4121L93.6174 19.83L94.4121 13.572H89.7402L89.4212 16.092C88.8312 15.222 88.1147 14.52 87.2598 14.022C86.3267 13.476 85.2671 13.2 84.075 13.2C82.883 13.2 81.7572 13.476 80.824 14.034C79.8909 14.592 79.1624 15.366 78.6326 16.362C78.1028 17.358 77.8379 18.522 77.8379 19.854C77.8379 21.186 78.1028 22.308 78.6326 23.31C79.1624 24.312 79.8909 25.086 80.824 25.638V25.644ZM82.7867 18.192C83.0455 17.706 83.4008 17.328 83.8523 17.052C84.3038 16.776 84.8276 16.632 85.4176 16.632C86.0076 16.632 86.6157 16.77 87.1575 17.052C87.6993 17.328 88.181 17.712 88.5903 18.192C88.9997 18.678 89.3068 19.23 89.5175 19.86C89.3128 20.472 89.0058 21.024 88.5903 21.504C88.181 21.99 87.6993 22.362 87.1575 22.638C86.6157 22.914 86.0317 23.046 85.4176 23.046C84.8035 23.046 84.3098 22.914 83.8523 22.638C83.3947 22.368 83.0395 21.99 82.7867 21.504C82.5278 21.018 82.4014 20.472 82.4014 19.86C82.4014 19.248 82.5278 18.672 82.7867 18.192Z" fill="white"/>
<path d="M101.065 21.372H107.013V26.112H111.504V13.578H107.013V18.036H101.065V13.578H96.5674V26.112H101.065V21.372Z" fill="white"/>
<path d="M125.387 26.112H129.812V13.578H124.039L118.422 21.93V13.578H113.973V26.112H119.59L125.387 17.496V26.112Z" fill="white"/>
<path d="M143.262 25.992C144.37 25.68 145.357 25.23 146.224 24.642V21.786C145.477 22.224 144.641 22.566 143.725 22.806C142.81 23.046 141.883 23.166 140.962 23.166C139.951 23.166 139.096 23.022 138.397 22.728C137.699 22.434 137.169 22.014 136.808 21.468C136.736 21.36 136.682 21.246 136.621 21.126H146.555C146.555 19.518 146.266 18.12 145.682 16.932C145.104 15.744 144.279 14.826 143.214 14.178C142.148 13.524 140.86 13.2 139.349 13.2C137.837 13.2 136.591 13.476 135.435 14.034C134.285 14.592 133.376 15.36 132.714 16.35C132.052 17.34 131.721 18.486 131.721 19.788C131.721 21.09 132.064 22.29 132.756 23.292C133.449 24.294 134.388 25.074 135.586 25.632C136.784 26.19 138.144 26.466 139.674 26.466C140.95 26.466 142.148 26.31 143.256 25.992H143.262ZM137.765 16.758C138.235 16.494 138.801 16.362 139.463 16.362C140.065 16.362 140.583 16.482 141.016 16.716C141.45 16.95 141.799 17.292 142.064 17.736C142.184 17.946 142.287 18.174 142.365 18.426H136.423C136.483 18.222 136.561 18.024 136.669 17.844C136.934 17.382 137.302 17.022 137.771 16.758H137.765Z" fill="white"/>
<path d="M38.302 33.144H34.4369V38.502H29.0547V42.354H34.4369V47.712H38.302V42.354H43.6783V38.502H38.302V33.144Z" fill="white"/>
<path d="M52.3657 46.404H56.881V37.2H62.6967V46.404H67.212V33.864H52.3657V46.404Z" fill="white"/>
<path d="M81.39 34.326C80.1799 33.768 78.7711 33.492 77.1697 33.492C75.5683 33.492 74.1415 33.768 72.9374 34.326C71.7333 34.884 70.7941 35.658 70.1198 36.654C69.4455 37.65 69.1084 38.814 69.1084 40.146C69.1084 41.478 69.4455 42.6 70.1198 43.602C70.7941 44.604 71.7333 45.378 72.9374 45.93C74.1415 46.476 75.5502 46.752 77.1697 46.752C78.7892 46.752 80.1799 46.476 81.39 45.93C82.6001 45.378 83.5453 44.604 84.2196 43.602C84.8939 42.6 85.2311 41.448 85.2311 40.146C85.2311 38.844 84.8939 37.65 84.2196 36.654C83.5453 35.658 82.6001 34.884 81.39 34.326ZM80.2582 41.904C79.9813 42.402 79.5779 42.78 79.0541 43.044C78.5303 43.308 77.9042 43.44 77.1697 43.44C76.4352 43.44 75.8031 43.308 75.2733 43.044C74.7435 42.78 74.3401 42.402 74.0632 41.904C73.7863 41.406 73.6418 40.812 73.6418 40.128C73.6418 39.444 73.7802 38.85 74.0632 38.358C74.3401 37.866 74.7435 37.488 75.2733 37.224C75.8031 36.96 76.4352 36.828 77.1697 36.828C77.9042 36.828 78.5303 36.96 79.0541 37.224C79.5779 37.488 79.9752 37.866 80.2582 38.358C80.5351 38.85 80.6796 39.444 80.6796 40.146C80.6796 40.848 80.5412 41.406 80.2582 41.904Z" fill="white"/>
<path d="M89.2346 36.75C89.2888 37.62 89.3129 38.4 89.3129 39.09C89.3129 40.524 89.1684 41.556 88.8734 42.186C88.5784 42.816 88.0727 43.128 87.3502 43.128C87.1455 43.128 86.9108 43.104 86.6579 43.05C86.399 43.002 86.1401 42.924 85.8752 42.822V46.008C86.3027 46.242 86.7362 46.41 87.1757 46.512C87.6151 46.614 88.0847 46.668 88.5844 46.668C90.2762 46.668 91.4983 46.122 92.2509 45.03C93.0094 43.938 93.3887 42.162 93.3887 39.708C93.3887 39.15 93.3646 38.52 93.3225 37.818C93.3104 37.626 93.2924 37.41 93.2743 37.206H98.1208V46.404H102.636V33.864H88.9758C89.0962 34.92 89.1805 35.88 89.2286 36.75H89.2346Z" fill="white"/>
<path d="M116.321 37.716C115.496 37.326 114.526 37.134 113.413 37.134H109.602V33.864H105.104V46.404H113.479C114.563 46.404 115.514 46.212 116.333 45.834C117.145 45.456 117.789 44.916 118.247 44.22C118.705 43.524 118.939 42.708 118.939 41.772C118.939 40.836 118.711 40.044 118.247 39.348C117.783 38.652 117.139 38.112 116.321 37.722V37.716ZM113.967 42.852C113.659 43.122 113.226 43.26 112.666 43.26H109.602V40.164H112.666C113.226 40.164 113.659 40.302 113.967 40.572C114.274 40.842 114.43 41.22 114.43 41.706C114.43 42.192 114.274 42.588 113.967 42.858V42.852Z" fill="white"/>
<path d="M132.913 40.452C132.461 40.224 131.913 40.062 131.275 39.96C131.48 39.912 131.678 39.858 131.853 39.792C132.63 39.516 133.196 39.138 133.539 38.658C133.882 38.184 134.056 37.674 134.056 37.134C134.056 36.432 133.773 35.808 133.208 35.256C132.642 34.704 131.853 34.278 130.842 33.96C129.83 33.648 128.644 33.486 127.296 33.486C125.766 33.486 124.466 33.69 123.394 34.098C122.323 34.506 121.498 35.058 120.914 35.748C120.33 36.438 120.023 37.2 119.981 38.034H124.297C124.37 37.536 124.653 37.158 125.146 36.9C125.64 36.642 126.296 36.516 127.115 36.516C127.861 36.516 128.451 36.624 128.879 36.834C129.306 37.044 129.517 37.35 129.517 37.746C129.517 38.1 129.324 38.376 128.945 38.58C128.566 38.784 127.976 38.886 127.181 38.886H125.02V41.298H127.247C128.144 41.298 128.795 41.388 129.21 41.562C129.619 41.736 129.824 42.024 129.824 42.42C129.824 42.858 129.589 43.188 129.12 43.41C128.65 43.626 127.982 43.74 127.115 43.74C126.248 43.74 125.507 43.602 124.99 43.32C124.466 43.044 124.165 42.642 124.075 42.114H119.734C119.776 43.068 120.107 43.89 120.727 44.586C121.347 45.282 122.202 45.816 123.292 46.188C124.388 46.56 125.658 46.746 127.115 46.746C128.656 46.746 129.969 46.572 131.046 46.218C132.124 45.864 132.949 45.39 133.515 44.778C134.081 44.172 134.363 43.488 134.363 42.726C134.363 41.688 133.876 40.926 132.907 40.44L132.913 40.452Z" fill="white"/>
<path d="M152.34 33.864H147.668L147.349 36.384C146.759 35.514 146.043 34.812 145.188 34.314C144.255 33.768 143.195 33.492 142.003 33.492C140.811 33.492 139.685 33.768 138.752 34.326C137.819 34.884 137.091 35.658 136.561 36.654C136.031 37.65 135.766 38.814 135.766 40.146C135.766 41.478 136.031 42.6 136.561 43.602C137.091 44.604 137.819 45.378 138.752 45.93C139.685 46.476 140.769 46.752 142.003 46.752C143.237 46.752 144.255 46.476 145.188 45.93C146.043 45.426 146.759 44.724 147.343 43.842L147.668 46.398H152.34L151.546 40.116L152.34 33.858V33.864ZM145.092 42.924C144.55 43.194 143.966 43.332 143.352 43.332C142.738 43.332 142.244 43.2 141.787 42.924C141.329 42.654 140.974 42.276 140.721 41.79C140.462 41.304 140.336 40.758 140.336 40.146C140.336 39.534 140.462 38.958 140.721 38.478C140.98 37.992 141.335 37.614 141.787 37.338C142.238 37.062 142.762 36.918 143.352 36.918C143.942 36.918 144.55 37.056 145.092 37.338C145.634 37.614 146.115 37.998 146.525 38.478C146.934 38.964 147.241 39.516 147.452 40.146C147.247 40.758 146.94 41.31 146.525 41.79C146.115 42.276 145.634 42.648 145.092 42.924Z" fill="white"/>
</g>
<defs>
<clipPath id="clip0_3465_1092">
<rect width="177" height="60" fill="white"/>
</clipPath>
</defs>
</svg>
